<svg xmlns="http://www.w3.org/2000/svg" xmlns:xlink="http://www.w3.org/1999/xlink" viewBox="0 0 1011.6 132.7" xmlns:v="https://vecta.io/nano"><g fill="#065493"><use xlink:href="#B"/><use xlink:href="#C"/><use xlink:href="#D"/><use xlink:href="#D" x="89"/><path d="M509.2 77.8c0 7.3 2.6 13.5 7.7 18.6s11.4 7.7 18.6 7.7 13.5-2.6 18.7-7.8 5.9-7.7 6.9-12.3l14.2 2c-1.5 7.7-5.2 14.5-11.1 20.4-7.9 7.9-17.5 11.9-28.7 11.9s-20.8-4-28.7-11.9-11.9-17.5-11.9-28.8 4-20.8 11.9-28.7S524.3 37 535.5 37s19.2 2.8 25.6 8.4 10.1 10.4 11.2 14.4l-52 28.5-6-10.4 37.9-20.7c-4.7-3.9-10.3-5.9-16.6-5.9s-13.5 2.6-18.6 7.8-7.7 11.4-7.7 18.6z"/><use xlink:href="#B" x="433.5"/><path d="M660.2 14.2h14.2v24.2h23.9v13.9h-23.9v33.5c0 5.3 1.6 9.5 4.9 12.7s7.6 4.8 13.1 4.8h6v13.9h-3.7c-10.4 0-18.7-2.9-25-8.7s-9.4-13.4-9.4-22.7V14.2z"/></g><g fill="#4d4d4d"><use xlink:href="#D" x="395.3"/><use xlink:href="#C" x="578.5"/><path d="M961.9 38.3v48.4c0 5.7 1.6 10.1 4.9 13.3s7.8 4.8 13.4 4.8 10.1-1.6 13.5-4.8c3.3-3.2 5-7.6 5-13.3V38.3h12.9v48.4c0 8.7-3.1 16.2-9.2 22.4s-13.5 9.3-22.2 9.3-18-4.1-24.9-12.4c-6.9 8.3-15.2 12.4-24.9 12.4s-16-3.1-22.2-9.3c-6.1-6.2-9.2-13.7-9.2-22.4V38.3h12.9v48.4c0 5.7 1.7 10.1 5 13.3s7.8 4.8 13.5 4.8 10.1-1.6 13.4-4.8 4.9-7.6 4.9-13.3V38.3h13.1zm-883 7.3c-4.6-4.6-10.6-6.9-16.7-6.9S50.1 41 45.5 45.6c-9.2 9.2-9.2 24.1 0 33.3l47.9 47.9c14.8-6.6 26.7-18.5 33.3-33.3L78.8 45.6z"/></g><path d="M33.6 90.9c-15.8-15.8-15.8-41.5 0-57.3s41.5-15.8 57.3 0l41.2 41.2c.4-2.8.5-5.6.5-8.5C132.7 29.7 103 0 66.3 0S0 29.7 0 66.3s29.7 66.3 66.3 66.3 5.7-.2 8.5-.5L33.6 90.9z" fill="#065493"/><defs ><path id="B" d="M194.7 52.2c-7 0-13 2.5-18 7.5s-7.5 11-7.5 18.1 2.5 13.1 7.5 18.1 11 7.5 18 7.5h13.6v13.9h-13.6c-10.9 0-20.2-3.8-27.9-11.5s-11.5-17-11.5-27.9 3.8-20.2 11.5-27.9 17-11.5 27.9-11.5h13.6v13.9h-13.6z"/><path id="C" d="M222.7 77.8c0-11.2 4-20.8 11.9-28.7s17.5-11.9 28.7-11.9 20.8 4 28.7 11.9 11.9 17.5 11.9 28.7-4 20.9-11.9 28.8-17.5 11.9-28.7 11.9-20.8-4-28.7-11.9-11.9-17.5-11.9-28.8zm67 0c0-7.2-2.6-13.4-7.7-18.6s-11.4-7.8-18.6-7.8-13.5 2.6-18.6 7.8-7.7 11.4-7.7 18.6 2.6 13.5 7.7 18.6 11.4 7.7 18.6 7.7 13.5-2.6 18.6-7.7 7.7-11.4 7.7-18.6z"/><path id="D" d="M389.5 68.8v48.4h-14.2V68.8c0-5.7-1.8-10.1-5.5-13.3-3.6-3.2-8.6-4.8-14.8-4.8s-11.1 1.6-14.8 4.8c-3.6 3.2-5.5 7.6-5.5 13.3v48.4h-14.2V68.8c0-8.7 3.4-16.2 10.1-22.4s14.8-9.3 24.4-9.3 17.6 3.1 24.4 9.3c6.7 6.2 10.1 13.7 10.1 22.4z"/></defs></svg>