<svg xmlns="http://www.w3.org/2000/svg" xmlns:xlink="http://www.w3.org/1999/xlink" viewBox="0 0 856.4 104.3" xmlns:v="https://vecta.io/nano"><g fill="#065493"><path d="M39.4 38c-7 0-13 2.5-18 7.5s-7.5 11-7.5 18.1 2.5 13.1 7.5 18.1 11 7.5 18 7.5H53v13.9H39.4c-10.9 0-20.2-3.8-27.9-11.5C3.8 83.7 0 74.5 0 63.6s3.8-20.2 11.5-27.9 17-11.5 27.9-11.5H53v13.9H39.4zm28.1 25.7c0-11.2 4-20.8 11.9-28.7s17.5-11.9 28.7-11.9 20.8 4 28.7 11.9 11.9 17.5 11.9 28.7-4 20.9-11.9 28.8-17.5 11.9-28.7 11.9-20.8-4-28.7-11.9S67.5 75 67.5 63.7zm67 0c0-7.2-2.6-13.4-7.7-18.6s-11.4-7.8-18.6-7.8-13.5 2.6-18.6 7.8-7.7 11.4-7.7 18.6 2.6 13.5 7.7 18.6S101 90 108.2 90s13.5-2.6 18.6-7.7 7.7-11.4 7.7-18.6z"/><use xlink:href="#B"/><use xlink:href="#B" x="89"/><path d="M353.9 63.6c0 7.3 2.6 13.5 7.7 18.6s11.4 7.7 18.6 7.7 13.5-2.6 18.7-7.8c3.6-3.6 5.9-7.7 6.9-12.3l14.2 2c-1.5 7.7-5.2 14.5-11.1 20.4-7.9 7.9-17.5 11.9-28.7 11.9s-20.8-4-28.7-11.9-11.9-17.5-11.9-28.8 4-20.8 11.9-28.7 17.5-11.9 28.7-11.9 19.2 2.8 25.6 8.4 10.1 10.4 11.2 14.4l-52 28.5-6-10.4L396.9 43c-4.7-3.9-10.3-5.9-16.6-5.9s-13.5 2.6-18.6 7.8-7.7 11.4-7.7 18.6zM473 38c-7 0-13 2.5-18 7.5s-7.5 11-7.5 18.1 2.5 13.1 7.5 18.1 11 7.5 18 7.5h13.6v13.9H473c-10.9 0-20.2-3.8-27.9-11.5s-11.5-17-11.5-27.9 3.8-20.2 11.5-27.9 17-11.5 27.9-11.5h13.6v13.9H473zm32-38h14.2v24.2h23.9v13.9h-23.9v33.5c0 5.3 1.6 9.5 4.9 12.7s7.6 4.8 13.1 4.8h6V103h-3.7c-10.4 0-18.7-2.9-25-8.7s-9.4-13.4-9.4-22.7V0z"/></g><g fill="#4d4d4d"><use xlink:href="#B" x="395.3"/><path d="M646 63.7c0-11.2 4-20.8 11.9-28.7s17.5-11.9 28.7-11.9 20.8 4 28.7 11.9 11.9 17.5 11.9 28.7-4 20.9-11.9 28.8-17.5 11.9-28.7 11.9-20.8-4-28.7-11.9S646 75 646 63.7zm67 0c0-7.2-2.6-13.4-7.7-18.6s-11.4-7.8-18.6-7.8-13.5 2.6-18.6 7.8-7.7 11.4-7.7 18.6 2.6 13.5 7.7 18.6 11.4 7.7 18.6 7.7 13.5-2.6 18.6-7.7 7.7-11.4 7.7-18.6zm93.7-39.5v48.4c0 5.7 1.6 10.1 4.9 13.3s7.8 4.8 13.4 4.8 10.1-1.6 13.5-4.8c3.3-3.2 5-7.6 5-13.3V24.2h12.9v48.4c0 8.7-3.1 16.2-9.2 22.4s-13.5 9.3-22.2 9.3-18-4.1-24.9-12.4c-6.9 8.3-15.2 12.4-24.9 12.4s-16-3.1-22.2-9.3c-6.1-6.2-9.2-13.7-9.2-22.4V24.2h12.9v48.4c0 5.7 1.7 10.1 5 13.3s7.8 4.8 13.5 4.8 10.1-1.6 13.4-4.8 4.9-7.6 4.9-13.3V24.2h13.1z"/></g><defs ><path id="B" d="M234.3 54.6V103h-14.2V54.6c0-5.7-1.8-10.1-5.5-13.3-3.6-3.2-8.6-4.8-14.8-4.8s-11.1 1.6-14.8 4.8c-3.6 3.2-5.5 7.6-5.5 13.3V103h-14.2V54.6c0-8.7 3.4-16.2 10.1-22.4s14.8-9.3 24.4-9.3 17.6 3.1 24.4 9.3c6.7 6.2 10.1 13.7 10.1 22.4z"/></defs></svg>